
<!DOCTYPE svg PUBLIC "-//W3C//DTD SVG 1.1//EN" "http://www.w3.org/Graphics/SVG/1.1/DTD/svg11.dtd">
<svg version="1.1" xmlns="http://www.w3.org/2000/svg" xmlns:xlink="http://www.w3.org/1999/xlink" x="0px" y="0px" viewBox="0 0 1000 1000" enable-background="new 0 0 1000 1000" xml:space="preserve">
<metadata> Svg Vector Icons : http://www.onlinewebfonts.com/icon </metadata>
<g><g transform="translate(0.000000,511.000000) scale(0.100000,-0.100000)"><path d="M7681.7,4992.8c-223.8-57.1-328.5-138.1-840.3-649.9c-278.5-276.1-507-514.2-507-528.5c0-30.9,2337.6-2368.5,2370.9-2368.5c11.9,0,254.7,233.3,535.6,518.9c552.2,557,599.8,623.7,647.5,902.2c31,178.5,0,376.1-90.4,571.3c-50,111.9-164.3,240.4-626.1,704.6c-645.1,649.9-737.9,730.8-926,802.2C8088.7,5004.7,7819.8,5026.1,7681.7,4992.8z"/><path d="M3704,1207.9L1299.7-1196.4l285.6-285.7c157.1-157.1,295.2-285.7,309.5-285.7c11.9,0,1099.8,1076,2416.1,2392.3L6703.3,3017l-297.5,297.6l-297.6,297.6L3704,1207.9z"/><path d="M4418.1,493.7L2013.9-1910.5l483.2-480.8l480.9-483.2L5382.2-470.4l2404.2,2404.2l-483.2,483.2L6822.4,2898L4418.1,493.7z"/><path d="M5506-584.6c-1311.6-1311.6-2385.2-2397.1-2385.2-2409c0-14.3,128.5-152.4,285.7-309.5l285.6-285.6l2404.3,2404.2l2404.2,2404.2l-290.4,290.4C8048.3,1672,7912.6,1803,7905.5,1803C7898.3,1803,6820,729.4,5506-584.6z"/><path d="M959.3-2284.2C826-2700.8,716.5-3053.1,716.5-3065c0-33.3,1078.3-1106.9,1111.7-1106.9c30.9,0,1511.6,476.1,1530.6,492.8c9.5,9.5-2121,2149.5-2142.4,2149.5C1209.3-1529.6,1092.6-1870,959.3-2284.2z"/><path d="M588-3429.2c-7.1-11.9-66.7-173.8-133.3-359.5c-64.3-185.7-171.4-485.6-235.7-666.5l-119-333.3l290.4,104.7c159.5,57.1,461.8,164.3,671.3,238c209.5,73.8,388,142.8,397.5,152.4c9.5,9.5-178.5,211.8-419,452.3C799.8-3600.6,597.5-3415,588-3429.2z"/></g></g>
</svg>